# xmcd CD database file
#
# Track frame offsets:
#	150
#	12772
#	26632
#	39477
#	53420
#	64605
#	76122
#	88222
#	101887
#	114582
#	128412
#
# Disc length: 1877 seconds
#
# Revision: 3
# Processed by: cddbd v1.5.1PL2 Copyright (c) Steve Scherf et al.
# Submitted via: CDex 1.70beta2
#
DISCID=7d07530b
DTITLE=Conway Twitty - Hello Darlin'
DYEAR=1966
DGENRE=Country
TTITLE0=Rocky Top
TTITLE1=I'll Get Over Losing You
TTITLE2=Up Comes The Bottle (Down Goes The Man)
TTITLE3=You And Your Sweet Love
TTITLE4=Hello Darlin'
TTITLE5=Rose
TTITLE6=Rueben James
TTITLE7=I Never Once Stopped Loving You
TTITLE8=Will You Visit Me On Sunday
TTITLE9=Blues Eyes Crying In The Rain
TTITLE10=I'm So Used To Loving You
EXTD=YEAR: 1966
EXTT0=
EXTT1=
EXTT2=
EXTT3=
EXTT4=
EXTT5=
EXTT6=
EXTT7=
EXTT8=
EXTT9=
EXTT10=
PLAYORDER=
